# xmcd CD database file
#
# Track frame offsets:
#	150
#	9782
#	23111
#	42963
#	62559
#	81294
#	109608
#	133614
#	155287
#	175372
#	192978
#
# Disc length: 2877 seconds
#
# Revision: 4
# Processed by: cddbd v1.5.2PL0 Copyright (c) Steve Scherf et al.
# Submitted via: CDex 1.51
#
DISCID=810b3b0b
DTITLE=Ewa Demarczyk - Piosenki Zygmunta Koniecznego
DYEAR=1966
DGENRE=Jazz
TTITLE0=Karuzela z Madonnami
TTITLE1=Garbus
TTITLE2=Tomaszow
TTITLE3=Grande Valse Brillante
TTITLE4=Jaki Smieszny
TTITLE5=Taki Pejzaz
TTITLE6=Wiersze Baczynskiego
TTITLE7=Pocalunki
TTITLE8=Czarne Anioly
TTITLE9=Groszki i Roze
TTITLE10=Deszcze
EXTD=YEAR: 1966
EXTT0=
EXTT1=
EXTT2=
EXTT3=
EXTT4=
EXTT5=
EXTT6=
EXTT7=
EXTT8=
EXTT9=
EXTT10=
PLAYORDER=
